<?xml version="1.0" standalone="no"?>
<!DOCTYPE svg PUBLIC "-//W3C//DTD SVG 1.1//EN" "http://www.w3.org/Graphics/SVG/1.1/DTD/svg11.dtd" >
<!--
2013-9-30: Created.
-->
<svg>
<metadata>
Created by iconfont
</metadata>
<defs>

<font id="iconfont" horiz-adv-x="1024" >
  <font-face
    font-family="iconfont"
    font-weight="500"
    font-stretch="normal"
    units-per-em="1024"
    ascent="896"
    descent="-128"
  />
    <missing-glyph />
    
    <glyph glyph-name="refresh" unicode="&#58880;" d="M968.60387555 529.5348243000001L762.47495111 529.5348243000001c-26.29680545 0-47.56724243 21.30660315-47.56724243 47.56954832 0 26.26076065 21.27165061 47.56724243 47.56724243 47.56724243l82.74757404 0c-74.64295538 105.47230341-197.38593659 174.41678222-336.4460468 174.41678223-227.68541392 0-412.26027615-184.57607585-412.26027616-412.2578489 0-227.6842003 184.57607585-412.25906252 412.26027616-412.25906251 227.6842003 0 412.25906252 184.57607585 412.2590625 412.25906251 0 26.26076065 21.27055835 47.56724243 47.56615017 47.56724244 26.26294518 0 47.57076195-21.30660315 47.57076196-47.56724244 0-280.22586785-227.19146667-507.39670282-507.39670281-507.39670281-280.20887703 0-507.39791645 227.16962133-507.39791645 507.39670281 0 280.22465422 227.18903941 507.39548918 507.39791645 507.39548919 170.06227911 0 320.27079111-83.84554477 412.25906251-212.30629926l0 85.45688084c0 26.26294518 21.27055835 47.56845605 47.56615017 47.56845605 26.26294518 0 47.57076195-21.30551088 47.57076195-47.56845605l0-190.27285334C1016.17451615 550.84130608 994.86439348 529.5348243000001 968.60387555 529.5348243000001Z"  horiz-adv-x="1024" />

    
    <glyph glyph-name="dianhua" unicode="&#58899;" d="M731.396 444.237c0-21.915 14.61-36.526 36.526-36.526s36.526 14.61 36.526 36.526c0 119.317-97.402 216.72-216.72 216.72-21.915 0-36.526-14.61-36.526-36.527s14.61-36.526 36.526-36.526c80.357 0 143.668-65.746 143.668-143.667z m146.103 0c0-21.915 14.61-36.526 36.526-36.526s36.526 14.61 36.526 36.526c0 197.24-160.714 360.387-360.388 360.387-21.915 0-36.526-14.61-36.526-36.526s14.61-36.526 36.526-36.526c155.844 0 287.336-129.057 287.336-287.335zM390.49 570.859c38.96 38.96 43.83 99.837 7.305 143.668L285.782 855.76C249.256 902.026 181.074 909.331 134.81 872.805c-2.436-4.87-7.306-4.87-7.306-7.305l-97.402-97.4c-92.532-92.533 38.961-345.777 280.031-586.847S799.578-188.876 892.11-98.78l97.402 97.402c43.83 43.83 43.83 112.012 0 150.973l-7.305 7.305-141.233 112.012c-43.831 36.526-104.708 31.656-143.668-7.305l-60.877-60.876c-65.746 38.96-121.752 82.792-172.888 133.928-48.702 48.7-90.097 104.707-131.493 170.453l58.441 65.746z m-51.136 94.967c9.74-14.61 9.74-36.526-2.435-46.266l-80.357-82.792c-12.175-12.175-14.61-29.22-7.305-43.83 41.396-77.921 94.967-148.538 158.278-211.85 63.312-63.311 133.928-116.882 211.85-158.278 14.61-7.305 31.656-4.87 43.83 7.306l82.793 82.79c14.61 14.61 31.655 14.61 46.266 2.436l141.233-114.447s2.435 0 2.435-2.435c14.61-12.175 14.61-34.09 2.435-48.701l-2.435-2.435-97.402-97.402c-46.266-46.266-270.291 73.05-482.14 280.03C146.983 439.368 30.1 665.827 78.801 714.528l99.837 99.837c14.61 9.74 38.961 9.74 51.137-7.305l109.577-141.233z"  horiz-adv-x="1024" />

    
    <glyph glyph-name="checkbox_" unicode="&#58996;" d="M170.666667 896h682.666666a170.666667 170.666667 0 0 0 170.666667-170.666667v-682.666666a170.666667 170.666667 0 0 0-170.666667-170.666667H170.666667a170.666667 170.666667 0 0 0-170.666667 170.666667V725.333333a170.666667 170.666667 0 0 0 170.666667 170.666667z m0-85.333333a85.333333 85.333333 0 0 1-85.333334-85.333334v-682.666666a85.333333 85.333333 0 0 1 85.333334-85.333334h682.666666a85.333333 85.333333 0 0 1 85.333334 85.333334V725.333333a85.333333 85.333333 0 0 1-85.333334 85.333334H170.666667z"  horiz-adv-x="1024" />

    
    <glyph glyph-name="checkbox_1" unicode="&#58998;" d="M0 896m170.666667 0l682.666666 0q170.666667 0 170.666667-170.666667l0-682.666666q0-170.666667-170.666667-170.666667l-682.666666 0q-170.666667 0-170.666667 170.666667l0 682.666666q0 170.666667 170.666667 170.666667ZM443.989333 135.68a25.685333 25.685333 0 0 0-36.608 0l-8.106666 8.106667-8.618667 8.704-38.058667 38.4c-0.085333 0.085333 0 0.341333-0.170666 0.426666L178.261333 367.957333a26.112 26.112 0 0 0 0 36.864L232.96 459.946667a25.770667 25.770667 0 0 0 36.608 0l156.16-158.549334L754.517333 632.32c10.069333 10.154667 26.453333 10.154667 36.522667 0l54.784-55.210667a26.112 26.112 0 0 0 0-36.693333L443.989333 135.509333z"  horiz-adv-x="1024" />

    
    <glyph glyph-name="jiantou1" unicode="&#58928;" d="M537.6 665.6L704 505.6c12.8-12.8 12.8-32 0-44.8s-32-12.8-44.8 0L544 569.6v-448c0-19.2-12.8-32-32-32s-32 12.8-32 32v448L364.8 454.4c-12.8-6.4-32-6.4-44.8 6.4-12.8 12.8-12.8 32 0 44.8l160 160c6.4 6.4 32 32 57.6 0z"  horiz-adv-x="1024" />

    
    <glyph glyph-name="icon-" unicode="&#58965;" d="M512 107.425185c-5.688889 0-11.093333 2.275556-15.075556 6.257778l-0.189629 0.18963L326.257778 284.444444c-8.343704 8.343704-8.343704 21.807407 0 30.151112s21.807407 8.343704 30.151111 0L512 158.90963l155.591111 155.685926c8.343704 8.343704 21.807407 8.343704 30.151111 0s8.343704-21.807407 0-30.151112l-170.666666-170.761481c-3.982222-4.077037-9.386667-6.257778-15.075556-6.257778zM512.474074 107.804444c-11.757037 0-21.333333 9.576296-21.333333 21.333334V640.758519c0 11.757037 9.576296 21.333333 21.333333 21.333333s21.333333-9.576296 21.333333-21.333333v-511.525926c0-11.851852-9.576296-21.428148-21.333333-21.428149z"  horiz-adv-x="1024" />

    
    <glyph glyph-name="quanping" unicode="&#59203;" d="M664.035 486.618l244.223 243.378-0.837-137.922c-0.335-11.437 8.912-21.527 20.351-21.191h14.63c11.438 0.335 21.025 7.065 21.193 18.67l0.672 205.367c0 0.171 0.335 10.934 0.335 10.934 0.17 5.716-1.179 10.934-4.879 14.63-3.7 3.702-8.742 6.055-14.633 5.886l-10.428-0.171c-0.169 0-0.331 0-0.501-0.171l-203.69 0.846c-11.438-0.336-21.025-9.76-21.193-21.361v-14.633c1.685-13.625 12.446-21.529 23.884-21.193l134.219-0.335-243.551-242.542c-11.101-11.104-11.101-29.095 0-40.197 11.104-11.269 29.101-11.269 40.203 0h-0.003M356.233 257.194l-244.393-242.544 0.842 137.253c0.336 11.435-8.918 21.523-20.355 21.193h-15.47c-11.438-0.335-21.025-7.065-21.193-18.672l-0.672-205.536c0-0.171-0.335-10.934-0.335-10.934-0.171-5.722 1.18-10.934 4.875-14.63 3.7-3.7 8.746-6.055 14.633-5.886l10.427 0.17c0.171 0 0.336 0 0.507 0.171l204.532-0.843c11.435 0.336 21.025 9.756 21.193 21.361v14.63c-1.683 13.625-12.451 21.529-23.887 21.193l-134.222 0.335 243.38 242.539c11.104 11.104 11.104 29.101 0 40.203-10.929 11.268-28.757 11.268-39.857-0.001v0M964.271-51.109l-0.507 205.536c-0.336 11.438-9.76 18.335-21.194 18.672h-14.629c-11.439 0.331-20.521-9.759-20.356-21.193l0.843-137.927-244.393 243.214c-11.104 11.104-29.099 11.104-40.203 0-11.097-11.101-11.097-29.099 0-40.203l243.386-242.538-134.22-0.335c-11.438 0.335-22.034-7.739-23.887-21.193v-14.633c0.335-11.437 9.76-21.025 21.193-21.361l203.69 0.843c0.17 0 0.335-0.17 0.507-0.17l10.428-0.171c5.716-0.17 10.934 2.016 14.63 5.886 3.698 3.7 5.042 8.912 4.875 14.63 0 0-0.169 10.764-0.169 10.934l0.004 0.002M152.885 769.355l134.22 0.335c11.435-0.335 22.031 7.739 23.883 21.193v14.636c-0.336 11.437-9.753 21.025-21.193 21.36l-204.694-0.842c-0.17 0-0.336 0.171-0.509 0.171l-10.426 0.169c-5.722 0.17-10.934-2.015-14.633-5.885-3.698-3.7-5.050-8.912-4.875-14.633 0 0 0.335-10.763 0.335-10.933l0.502-205.536c0.171-11.435 9.759-18.335 21.193-18.667h15.475c11.437-0.335 20.519 9.753 20.349 21.191l-0.671 137.248 244.224-242.709c11.097-11.104 29.094-11.104 40.196 0 11.104 11.101 11.104 29.099 0 40.203l-243.38 242.703M152.885 769.355v0z"  horiz-adv-x="1024" />

    
    <glyph glyph-name="xinkehu" unicode="&#59021;" d="M169.095209 646.579347c0 137.7759 113.51331 249.420653 253.573229 249.420653 140.060943 0 253.574253-111.644753 253.574253-249.383814 0-137.75748-113.531729-249.439072-253.574253-249.439072C282.607496 397.177114 169.095209 508.858706 169.095209 646.579347zM538.883277 314.036555 327.559291 314.036555c-180.877557 0-327.537801-153.380296-327.537801-342.565053l0-22.096251c0-77.336366 146.642848-77.375252 327.537801-77.375252l211.323986 0c180.894953 0 327.537801 2.854001 327.537801 77.375252l0 22.096251C866.421079 160.656259 719.77823 314.036555 538.883277 314.036555zM1010.8147 790.973992l-65.605184 0L945.209516 856.616014c0 7.28901-5.89322 13.146415-13.146415 13.146415l-78.770018 0c-7.253194 0-13.110599-5.857405-13.110599-13.146415l0-65.642023-65.658396 0c-7.235798 0-13.09218-5.820566-13.110599-13.127995l0-78.752622c0-7.234775 5.874801-13.146415 13.110599-13.146415l65.658396 0 0-65.623603c0-7.234775 5.857405-13.146415 13.110599-13.146415l78.770018 0c7.271614 0 13.146415 5.91164 13.146415 13.146415l0 65.623603 65.605184 0c7.290033 0 13.164834 5.91164 13.164834 13.146415L1023.979534 777.845996C1023.979534 785.153426 1018.050498 790.973992 1010.8147 790.973992z"  horiz-adv-x="1024" />

    
    <glyph glyph-name="quanbu" unicode="&#58983;" d="M383.225101 782.014946 139.158387 782.014946c-41.415248 0-75.094302-33.685193-75.094302-75.094302l0-244.065691c0-41.409109 33.679054-75.101465 75.094302-75.101465l244.065691 0c41.415248 0 75.099419 33.691333 75.099419 75.101465L458.323497 706.91962C458.323497 748.328729 424.64035 782.014946 383.225101 782.014946zM937.458995 637.985622 764.876358 810.570305c-29.287023 29.284977-76.91988 29.278837-106.204857 0L486.092957 637.985622c-29.280884-29.278837-29.284977-76.912717 0-106.197694l172.582637-172.584684c29.287023-29.284977 76.91988-29.278837 106.199741 0l172.582637 172.584684C966.738855 561.066765 966.744995 608.700645 937.458995 637.985622zM383.225101 331.435831 139.158387 331.435831c-41.415248 0-75.094302-33.691333-75.094302-75.101465l0-244.066715c0-41.395806 33.679054-75.092255 75.094302-75.092255l244.065691 0c41.415248 0 75.099419 33.697473 75.099419 75.092255L458.323497 256.334365C458.323497 297.743474 424.64035 331.435831 383.225101 331.435831zM833.809333 331.435831 589.743642 331.435831c-41.415248 0-75.101465-33.691333-75.101465-75.101465l0-244.066715c0-41.395806 33.685193-75.092255 75.101465-75.092255l244.065691 0c41.414225 0 75.093279 33.697473 75.093279 75.092255L908.902612 256.334365C908.902612 297.743474 875.223558 331.435831 833.809333 331.435831z"  horiz-adv-x="1024" />

    
    <glyph glyph-name="dangqianweizhi" unicode="&#58912;" d="M518.1 413.5c86.8 0 157.5 67.8 157.5 151.2 0 83.4-70.6 151.2-157.5 151.2S360.6 648 360.6 564.7c0-83.4 70.7-151.2 157.5-151.2z m0 265c66.2 0 120.1-51 120.1-113.8 0-62.7-53.9-113.8-120.1-113.8S398 502 398 564.7c0 62.7 53.9 113.8 120.1 113.8zM916.2 170.2c-23.4 17.6-56.1 33.1-97.5 46.3-34.2 10.9-73.1 19.7-115.2 26.4-10.5 1.7-20.9-3.7-25.6-13.3-7.2-14.7 1.8-32.2 18-34.8 40.6-6.3 78-14.8 110.8-25.2 75.2-23.9 108.8-53.5 108.8-72.3 0-18.8-33.6-48.4-108.8-72.3-78.5-25-183.3-38.7-295-38.7-111.7 0-216.5 13.8-295 38.7-75.2 23.9-108.8 53.5-108.8 72.3 0 18.8 33.6 48.4 108.8 72.3 35.1 11.2 75.4 20.1 119.3 26.5 16.4 2.4 25.6 20 18.3 34.8-4.7 9.5-14.9 14.8-25.3 13.3-45.5-6.8-87.6-16.1-124.3-27.8-41.3-13.1-74.1-28.7-97.5-46.3-28.6-21.5-43.1-46-43.1-72.9 0-26.9 14.5-51.4 43.1-72.9 23.4-17.6 56.1-33.1 97.5-46.3 82.3-26.2 191.3-40.6 307-40.6 115.7 0 224.7 14.4 307 40.6 41.3 13.1 74.1 28.7 97.5 46.3 28.6 21.5 43.1 46 43.1 72.9 0 26.9-14.5 51.5-43.1 73zM366.8 249.1l23-46.6 41.7-84.3c15.2-31.8 49.2-52.4 86.7-52.4 37 0 71.2 20.4 87 52l41.1 83.4 22.9 46.4 108.7 220.6c13.1 26.5 19.3 57.2 19.3 96.4 0 147.3-125.1 267.1-278.8 267.1-153.8 0-278.8-119.8-278.8-267.1 0-39.3 6.1-69.9 19.2-96.4l108-219.1z m151.3 545.3c133.1 0 241.5-103 241.5-229.7 0-33.3-4.9-58.6-15.4-79.9L629.4 251.9l-23.2-47-34.7-70.4c-9.5-19-30.5-31.3-53.5-31.3-23.2 0-44 12.2-53 31.2l-0.1 0.1-35.2 71.2-23.3 47.2-114.4 232c-10.5 21.2-15.4 46.5-15.4 79.8 0 126.6 108.4 229.7 241.5 229.7zM318.8 143c15.4 4.9 32.3 9.1 50.4 12.6 10.2 2 15.8 13.2 11.2 22.6-3.2 6.4-10.3 9.9-17.3 8.5-18.7-3.7-36.2-8.1-52.1-13.1-27-8.6-48.4-18.7-63.6-30.2-18.7-14-28.1-30-28.1-47.6 0-17.5 9.5-33.6 28.1-47.6 15.2-11.5 36.6-21.6 63.6-30.2 53.7-17.1 124.8-26.5 200.3-26.5 75.5 0 146.6 9.4 200.3 26.5 27 8.6 48.3 18.7 63.6 30.2 18.7 14 28.1 30 28.1 47.6 0 17.5-9.5 33.6-28.1 47.6-15.2 11.5-36.6 21.6-63.6 30.2-13.1 4.2-27.3 7.9-42.3 11.1-7.1 1.5-14.3-2-17.5-8.5-4.6-9.3 0.8-20.3 10.9-22.5 14.7-3.1 28.4-6.7 41.2-10.8 49-15.6 71-34.9 71-47.2 0-12.2-22-31.6-71-47.2-51.2-16.3-119.6-25.3-192.5-25.3s-141.3 9-192.5 25.3c-49.1 15.6-71 34.9-71 47.2-0.1 12.4 21.9 31.7 70.9 47.3z"  horiz-adv-x="1024" />

    
    <glyph glyph-name="laokehu" unicode="&#59318;" d="M574.506101 245.97339h-0.054235v-0.055258c-11.005658-11.359722-10.979052-29.764907 0.026606-41.12463 11.031241-11.305487 28.891004-11.305487 39.923268 0.054235 11.006681 11.30651 11.006681 29.711695 0 41.071418-11.004635 11.360745-28.863375 11.414981-39.895639 0.054235z m240.800321 48.827055c-14.526855 10.813277-34.845623 7.754614-45.769416-6.935969-10.921747-14.746866-8.43716-35.718503 5.571902-47.352471 73.157183-57.181327 116.003014-146.423861 115.702162-241.018286 0.026606-18.842137 14.827707-34.18866 33.124422-34.298154h0.027629c18.323321 0.10847 33.096792 15.456017 33.123398 34.298154 0.384763 115.894543-52.100612 225.233787-141.780097 295.306726zM573.195246 168.310589c-20.753673-44.620243-47.598065-107.757213-47.598065-135.829571 0-39.650045 71.1382-67.285452 71.1382-67.285453s71.164806 27.635407 71.164807 67.285453c0 28.019147-26.926256 91.263563-47.625694 135.829571-14.801101-7.701402-32.279171-7.701402-47.079248 0z m267.015379 385.040447c0 138.505517-108.98518 250.794953-243.422032 250.794953-107.59246 0.109494-202.460108-72.584132-233.2913-178.757267-30.830169-106.173135 9.721409-220.538859 99.701746-281.325293-136.430252-56.800657-226.000244-192.848193-226.764654-344.407004 0-18.897396 14.855336-34.189683 33.206287-34.189683 18.323321 0 33.206286 15.292288 33.206286 34.189683 0.164752 167.122275 131.623783 302.624389 293.8874 302.897611 134.464481 0.056282 243.476267 112.291482 243.476267 250.797z m-420.594197 0c-0.983397 65.866127 32.605605 127.20003 87.821161 160.405293 55.217602 33.207309 123.541711 33.207309 178.757267 0 55.217602-33.260521 88.777953-94.539166 87.823208-160.405293-1.503237-99.728352-80.394005-179.794899-177.228447-179.794899-96.834442 0.054235-175.726234 80.066547-177.173189 179.794899zM313.388035 341.551212c17.259082 0 31.212886 14.418384 31.212886 32.168654-0.082888 16.876366-12.889565 30.803563-29.247115 31.731702-62.5895 16.384156-106.392122 74.386174-106.528222 140.90824 0 61.879326 37.548174 114.474194 90.334402 135.719055a298.788014 298.788014 0 0 0 37.138851 63.736626c-80.503499-5.734608-149.128459-62.206784-172.421978-141.782144-24.659633-84.927251 7.782244-176.463014 79.765695-225.016846C134.521275 333.522352 62.838675 224.674295 62.237995 103.425813c0-15.127536 11.878538-27.362184 26.570145-27.362184 14.637372 0 26.543539 12.234649 26.54354 27.362184 0.163729 120.318296 85.583191 219.446991 197.271945 238.343363 0.273223 0 0.491187-0.217964 0.76441-0.217964z"  horiz-adv-x="1024" />

    
    <glyph glyph-name="gongzuotai" unicode="&#59002;" d="M992.085333 452.608L603.022222 856.917333a125.155556 125.155556 0 0 1-181.589333 0L33.052444 452.608a84.935111 84.935111 0 0 1-28.444444-92.785778 67.356444 67.356444 0 0 1 66.958222-39.822222h56.888889v-310.840889A130.844444 130.844444 0 0 1 251.107556-128h165.660444v328.760889c0 35.100444-5.290667 55.011556 30.492444 55.011555h130.844445c35.783111 0 30.492444-19.911111 30.492444-55.011555V-128h164.977778a130.844444 130.844444 0 0 1 122.595556 137.216v310.840889h56.888889a68.949333 68.949333 0 0 1 66.958222 39.822222 85.333333 85.333333 0 0 1-27.818667 92.785778z"  horiz-adv-x="1024" />

    
    <glyph glyph-name="guanliyuan" unicode="&#59178;" d="M590.336 422.1952c-39.7312-83.5584-107.2128-97.0752-107.2128-163.1232 0-49.5616 30.208-66.1504 67.584-110.592 19.7632-159.1296 98.7136-191.6928 109.9776-191.6928H95.232a91.648 91.648 0 0 0-89.6 86.6304c0 68.608 43.2128 84.48 82.432 108.8512 39.3216 24.3712 96.6656 46.1824 136.3968 61.1328 39.6288 14.9504 53.5552 7.0656 58.5728 61.44 5.3248 61.6448-62.2592 81.5104-94.9248 164.5568-4.096 1.2288-50.2784 156.8768 36.352 277.2992C282.112 796.9792 356.352 825.856 447.488 803.5328c81.5104-30.1056 123.1872-91.2384 148.0704-156.2624 40.3456-133.12-4.4032-222.208-5.2224-225.0752z m195.072-22.9376c30.0032 0 62.8736-65.536 101.4784-65.536 16.0768 0 35.5328 1.536 58.368 4.5056a51.2 51.2 0 0 0 57.0368-58.9824c-24.576-150.528-54.272-240.7424-89.7024-270.6432-36.5568-31.0272-106.1888-71.168-130.6624-71.168-24.3712 0-97.28 40.96-134.3488 71.168-37.888 30.9248-64.7168 122.5728-80.2816 274.944a51.2 51.2 0 0 0 57.856 55.9104c27.8528-3.7888 48.64-5.632 62.464-5.632 34.0992 0 67.6864 65.4336 97.792 65.4336z"  horiz-adv-x="1024" />

    
    <glyph glyph-name="huodongshezhi" unicode="&#59006;" d="M738.5088-88.6784h190.464c17.6128 0 31.9488 14.9504 31.9488 32.9728V358.8096h75.5712l-0.2048 24.7808V588.8c0 14.7456-14.9504 25.3952-35.4304 25.3952l-114.688 0.2048c11.264 14.5408 19.8656 31.9488 23.552 53.4528 8.192 49.152-3.8912 98.5088-32.1536 131.8912-24.3712 28.8768-58.368 44.032-98.0992 44.032-46.08 0-89.088-22.3232-121.2416-62.6688-15.5648-19.8656-28.0576-43.4176-36.6592-68.4032-14.336 6.7584-32.768 11.264-55.9104 13.5168-5.3248 0.4096-10.4448 0.8192-15.36 0.8192-24.1664 0-45.6704-5.7344-63.0784-16.5888-3.2768 7.168-7.7824 15.5648-13.9264 25.6-35.4304 59.8016-78.848 101.7856-116.736 112.64-27.4432 7.7824-50.5856 8.3968-70.4512 1.2288-17.2032-6.144-31.3344-17.6128-43.008-35.0208-17.6128-26.4192-20.48-73.9328-20.8896-84.992-0.2048-0.8192-0.2048-1.8432-0.2048-2.8672 0-7.168 4.9152-13.312 11.8784-15.7696 0.8192-8.192 8.3968-14.5408 17.408-14.5408 9.6256 0 17.408 7.3728 17.408 16.1792v1.2288c0.6144 17.8176 4.9152 49.9712 14.336 63.8976 10.8544 16.1792 27.4432 30.9248 70.8608 18.6368 20.48-5.7344 56.7296-33.5872 91.7504-92.5696 6.5536-11.0592 10.4448-18.8416 12.9024-24.3712-3.2768-6.7584-5.7344-13.9264-6.7584-21.0944-2.2528-17.6128-1.4336-31.9488 2.4576-43.6224l-0.2048-0.2048h-1.024c-10.4448-0.4096-31.5392-1.4336-51.2 0-0.2048 0.2048-0.6144 0.4096-1.024 0.4096h-3.6864c-9.8304 0.8192-19.0464 2.4576-26.2144 5.12-25.6 9.4208-66.7648 28.0576-99.7376 43.008-21.7088 9.8304-38.912 17.408-47.7184 20.8896-33.9968 13.1072-74.3424 26.4192-126.7712 18.432-92.5696-14.336-96.4608-76.1856-96.6656-78.848v-0.6144c0-9.216 7.9872-16.5888 17.8176-16.5888h0.2048c2.048 0 4.096-1.024 5.3248-2.6624 3.072-4.096 8.3968-6.7584 13.9264-6.7584 9.216 0 16.5888 6.5536 17.2032 14.9504h0.2048c0 0.2048 3.2768 33.792 63.6928 43.2128 41.5744 6.5536 74.1376-4.3008 103.8336-15.7696 7.7824-3.072 24.576-10.6496 44.032-19.456 2.8672-1.2288 5.5296-2.4576 8.3968-3.8912l-177.5616-2.2528c-20.48 0-35.4304-10.6496-35.4304-25.3952v-230.1952h77.4144v-414.1056c0-18.2272 14.336-32.9728 31.9488-32.9728h567.5008M657.6128 706.9696c21.504 47.104 60.8256 83.5584 111.616 83.5584 27.8528 0 51.2-10.4448 67.9936-29.9008 20.8896-24.3712 29.4912-61.44 23.3472-98.7136-3.2768-19.6608-12.9024-34.6112-26.4192-47.104l-177.7664 0.2048c4.5056 12.0832 5.5296 27.4432 3.2768 47.104-1.2288 9.216-3.8912 17.408-8.3968 24.9856 1.8432 6.5536 4.096 13.312 6.3488 19.8656z m-126.1568-743.0144H188.8256V358.8096h342.6304v-394.8544z m0 432.5376H116.1216v173.6704l270.336 0.2048c0.2048 0 0.4096 0 0.6144 0.2048h18.432c0.2048 0 0.2048 0 0.6144 0.2048 7.5776-0.4096 15.1552-0.8192 22.3232-0.8192 4.3008 0 8.3968 0 12.0832 0.2048h90.9312v-173.6704z m8.8064 219.136c-4.3008-0.2048-8.6016-0.2048-12.6976-0.4096h-13.312c-12.6976 0.4096-19.8656 2.4576-23.3472 6.3488-1.2288 1.6384-2.4576 3.8912-3.2768 6.5536-0.2048 4.3008 0.2048 9.216 0.8192 14.5408 2.2528 17.8176 23.9616 35.6352 60.416 35.6352 3.6864 0 7.7824-0.2048 11.4688-0.6144 56.1152-5.3248 58.1632-23.552 59.1872-31.5392 1.2288-10.6496 1.2288-18.0224 0.2048-23.1424-6.7584-7.168-28.8768-7.168-50.176-7.168h-5.7344c-7.9872 0.4096-15.7696 0-23.552-0.2048z m368.64-651.6736H567.9104V358.8096h340.992v-394.8544z m70.8608 432.5376H567.9104v173.6704h411.8528v-173.6704z m0 0M877.3632 86.6304H862.208c-1.4336 5.3248-3.6864 10.24-6.3488 14.9504l10.8544 10.8544c2.2528 2.2528 3.6864 5.5296 3.6864 8.8064 0 3.2768-1.2288 6.5536-3.6864 8.8064l-8.8064 8.8064c-4.9152 4.9152-12.6976 4.9152-17.6128 0l-11.0592-11.0592c-4.5056 2.4576-9.216 4.3008-14.1312 5.7344V148.48c0 6.7584-5.5296 12.288-12.4928 12.288h-12.4928c-6.9632 0-12.4928-5.5296-12.4928-12.288v-14.9504c-5.12-1.4336-10.0352-3.4816-14.5408-5.9392l-11.4688 11.264c-4.9152 4.9152-12.9024 4.9152-17.6128 0l-8.8064-8.8064c-2.2528-2.2528-3.6864-5.5296-3.6864-8.8064 0-3.2768 1.2288-6.5536 3.6864-8.8064l11.4688-11.264c-2.6624-4.5056-4.5056-9.4208-5.9392-14.5408h-15.1552c-6.9632 0-12.4928-5.5296-12.4928-12.288v-12.288c0-6.7584 5.5296-12.288 12.4928-12.288h15.1552c1.4336-4.9152 3.2768-9.6256 5.7344-13.9264l-11.0592-11.0592c-2.2528-2.2528-3.6864-5.5296-3.6864-8.8064 0-3.2768 1.2288-6.5536 3.6864-8.8064l8.8064-8.8064c4.9152-4.9152 12.9024-4.9152 17.6128 0l10.8544 10.8544c4.7104-2.6624 9.8304-4.7104 15.1552-6.3488v-14.9504c0-6.7584 5.5296-12.288 12.4928-12.288h12.4928c6.9632 0 12.4928 5.5296 12.4928 12.288v14.9504c5.12 1.4336 10.0352 3.4816 14.5408 5.9392l10.6496-10.4448c4.9152-4.9152 12.6976-4.9152 17.6128 0l8.8064 8.8064c2.2528 2.2528 3.6864 5.5296 3.6864 8.8064 0 3.2768-1.2288 6.5536-3.6864 8.8064l-10.6496 10.4448c2.6624 4.5056 4.5056 9.4208 5.9392 14.5408h15.1552c3.2768 0 6.5536 1.2288 8.8064 3.6864 2.2528 2.2528 3.6864 5.5296 3.6864 8.8064v12.288c0 6.5536-5.5296 12.0832-12.4928 12.0832z m-80.896-55.7056c-20.6848 0-37.2736 16.5888-37.2736 37.0688 0 20.48 16.7936 37.0688 37.2736 37.0688 20.6848 0 37.2736-16.5888 37.2736-37.0688 0-20.48-16.5888-37.0688-37.2736-37.0688z m0 0"  horiz-adv-x="1038" />

    
    <glyph glyph-name="tuichu" unicode="&#59213;" d="M501.148282 384.991638a37.542166 37.542166 0 0 0-38.245683 36.710738V859.097394C462.902599 879.435399 480.042805 896 501.148282 896c21.169433 0 38.373594-16.628557 38.373594-36.902606v-437.20315a37.606122 37.606122 0 0 0-38.309638-36.902606zM489.636203-127.295845a497.385736 497.385736 0 0 0-346.001907 138.272851A470.460265 470.460265 0 0 0 38.746472 161.01776a457.413243 457.413243 0 0 0 17.587897 402.794826A483.187507 483.187507 0 0 0 205.223915 728.435305a39.205022 39.205022 0 0 0 53.467207-8.570102 35.943267 35.943267 0 0 0-8.953838-51.35666 408.422954 408.422954 0 0 1-125.609565-139.040323 380.857922 380.857922 0 0 1-47.263477-184.576988c0-106.422768 42.978425-206.449937 121.004734-281.662181a417.760529 417.760529 0 0 1 291.895139-116.655727 418.016352 418.016352 0 0 1 291.89514 116.591771 388.596597 388.596597 0 0 1 120.876822 281.726137 380.538142 380.538142 0 0 1-47.135565 184.576988 408.039218 408.039218 0 0 1-125.801433 138.912411 35.943267 35.943267 0 0 0-9.401531 50.653144l0.63956 0.767472a39.141066 39.141066 0 0 0 53.403252 8.570102 482.547947 482.547947 0 0 0 148.82559-164.558763 456.965551 456.965551 0 0 0 17.651853-402.794826 469.820705 469.820705 0 0 0-104.887824-150.10471 489.902886 489.902886 0 0 0-155.540969-101.178376A503.461556 503.461556 0 0 0 489.636203-127.295845z"  horiz-adv-x="1024" />

    
    <glyph glyph-name="zaiduxueyuan" unicode="&#58894;" d="M510.955102 833.306122a167.183673 167.183673 0 1 0-167.183673-167.183673 167.183673 167.183673 0 0 0 167.183673 167.183673m0 62.693878a229.877551 229.877551 0 1 1 229.877551-229.877551 229.877551 229.877551 0 0 1-229.877551 229.877551zM922.853878 116.506122h-62.693878c0 164.675918-118.282449 298.840816-263.732245 298.840817h-161.959184c-146.285714 0-263.732245-133.955918-263.732244-298.840817h-62.693878c0 199.366531 146.285714 361.534694 326.635102 361.534694h161.959184c179.722449 0 326.217143-162.168163 326.217143-361.534694zM512.20898-96.653061a31.346939 31.346939 0 0 0-31.346939 31.346939c0 45.557551-152.346122 118.073469-438.857143 135.836734a31.346939 31.346939 0 0 0 3.970612 62.693878c229.877551-14.210612 496.953469-74.814694 496.95347-198.530612a31.346939 31.346939 0 0 0-30.72-31.346939zM512.20898-96.653061a31.346939 31.346939 0 0 0-31.346939 31.346939c0 123.715918 267.702857 184.11102 497.162449 198.530612a31.346939 31.346939 0 0 0 3.970612-62.693878c-285.884082-17.763265-438.857143-90.488163-438.857143-135.836734a31.346939 31.346939 0 0 0-30.928979-31.346939zM971.964082-128h-919.510204a31.346939 31.346939 0 0 0 0 62.693878h919.510204a31.346939 31.346939 0 0 0 0-62.693878z"  horiz-adv-x="1024" />

    
    <glyph glyph-name="zhanghuguanli" unicode="&#58887;" d="M889.303 674.321H135.11c-38.719 0-70.218-31.498-70.218-70.218V97.84c0-38.72 31.5-70.219 70.218-70.219h754.193c38.72 0 70.218 31.5 70.218 70.219V604.104c0 38.719-31.499 70.217-70.218 70.217z m-601.725-193.51c17.03 17.032 40.853 27.254 66.524 27.254 26.208 0 49.786-10.218 67.061-27.254 16.495-17.302 27.254-40.344 27.254-66.524 0-26.208-10.754-49.786-27.254-66.818-37.178-36.668-96.646-36.668-133.585 0-16.765 17.032-27.254 40.61-27.254 66.818 0.004 26.18 10.488 49.222 27.254 66.524zM482.81 195.352H225.674v16.844c0 9.182 1.894 18.909 5.631 28.906l0.193 0.465c4.574 9.964 10.054 18.064 16.756 24.767 14.56 14.56 33.968 22.58 54.646 22.58h103.19c10.067 0 20.04-1.895 28.84-5.478l0.177-0.076c9.465-4.165 17.975-9.866 25.292-16.946l0.179-0.18c7.13-7.418 12.6-15.803 16.261-24.917 3.962-9.362 5.972-19.159 5.972-29.122v-16.843z m254.806 59.939H596.619c-9.728 0-17.553 8.257-17.548 18.201 0 9.944 7.82 17.768 17.548 17.768h140.998c10.14 0 17.982-7.824 17.982-17.768 0-9.948-7.843-18.201-17.982-18.201z m78.02 97.09H596.618c-9.728 0-17.553 8.258-17.548 18.202 0 9.944 7.82 17.768 17.548 17.768h219.017c10.14 0 17.983-7.824 17.983-17.768 0-9.948-7.842-18.201-17.983-18.201z m0 97.092H596.618c-9.728 0-17.553 8.257-17.548 18.202 0 9.943 7.82 17.767 17.548 17.767h219.017c10.14 0 17.983-7.824 17.983-17.767 0-9.948-7.842-18.202-17.983-18.202z"  horiz-adv-x="1024" />

    
    <glyph glyph-name="wodeshuju" unicode="&#59061;" d="M0-128v64h1024v-64H0zM768 640h256v-640h-256V640zM384 896h256v-896H384V896zM0 512h256v-512H0V512z"  horiz-adv-x="1024" />

    
    <glyph glyph-name="jiantou" unicode="&#58954;" d="M151.476947 696.446082l718.53082 0c39.763632 0 71.922053-31.909757 71.922053-71.675436 0-18.485003-7.095605-35.205826-18.486026-47.872311L568.114019 102.772944c-23.810289-31.400151-68.641333-37.993313-100.29731-14.183024-5.570879 4.052293-10.384511 8.873088-14.183024 14.190187L94.235245 581.958584c-23.547299 31.407314-17.217127 76.479859 14.436804 100.041484 12.922311 9.881045 27.864628 14.43885 42.804898 14.43885l0 0L151.476947 696.446082zM151.476947 696.446082"  horiz-adv-x="1024" />

    
    <glyph glyph-name="fanhui" unicode="&#58916;" d="M710.153924 887.019603L266.007127 435.307476a81.118646 81.118646 0 0 1 0.861532-114.476097l446.192936-441.050666a26.922883 26.922883 0 0 1 37.853573 38.284339L304.722232 359.115718a27.27288 27.27288 0 0 0-0.323074 38.445877L748.545955 849.273722A26.922883 26.922883 0 1 1 710.180847 886.99268z"  horiz-adv-x="1024" />

    
    <glyph glyph-name="sousuo" unicode="&#58930;" d="M474.453333 11.946667c-225.28 0-409.6 184.32-409.6 409.6s184.32 409.6 409.6 409.6 409.6-184.32 409.6-409.6-184.32-409.6-409.6-409.6z m0 68.266666c187.733333 0 341.333333 153.6 341.333334 341.333334s-153.6 341.333333-341.333334 341.333333-341.333333-153.6-341.333333-341.333333 153.6-341.333333 341.333333-341.333334z m252.586667-54.613333c-13.653333 13.653333-10.24 37.546667 3.413333 47.786667s37.546667 10.24 47.786667-3.413334l64.853333-78.506666c13.653333-13.653333 10.24-37.546667-3.413333-47.786667s-37.546667-10.24-47.786667 3.413333l-64.853333 78.506667z"  horiz-adv-x="1024" />

    


  </font>
</defs>
</svg>
